# xmcd
#
# Track frame offsets: 
#        182
#        15015
#        27400
#        40697
#        58807
#        75785
#        87655
#        104725
#        118760
#        132440
#
# Disc length: 2054 seconds
#
# Revision: 12
# Processed by: cddbd v1.5.2PL0 Copyright (c) Steve Scherf et al.
# Submitted via: ExactAudioCopy v0.99pb4
#
DISCID=7908040a
DTITLE=Faith Hill - Take Me As I Am
DYEAR=1993
DGENRE=Country
TTITLE0=Take Me As I Am
TTITLE1=Wild One
TTITLE2=Just About Now
TTITLE3=Piece Of My Heart
TTITLE4=I've Got This Friend
TTITLE5=Life's Too Short To Love Like That
TTITLE6=But I Will
TTITLE7=Just Around The Eyes
TTITLE8=Go The Distance
TTITLE9=I Would Be Stronger Than That
EXTD=YEAR: 1993
EXTT0=
EXTT1=
EXTT2=
EXTT3=
EXTT4=
EXTT5=
EXTT6=
EXTT7=
EXTT8=
EXTT9=
PLAYORDER=
